<svg xmlns="http://www.w3.org/2000/svg" width="624" height="367" fill="none"><path fill="#EF9E81" d="M433.48 211.52a669.66 669.66 0 0 0 15.86-72c4.04-9.2 8.59-18.16 13.58-26.84 6.17-10.67 13.43-20.52 20.19-30.82 6.02-9.19 11.45-19.34 12.11-30.44.51-8.68-1.4-18.02-7.2-24.79-6.38-7.5-16.22-10.44-25.83-9.56-10.43.88-19.9 6.4-27.97 12.8-8.74 6.98-16.89 14.93-24.6 22.94a311.53 311.53 0 0 0-39.49 50.9c-8.37-3.24-16.44-7.14-24.52-10.96-11.74-5.6-23.63-10.52-36.26-13.83-22.54-5.88-47.94-8.16-70.03.52-19.97 7.87-36.78 25.81-37.07 48.17a41.7 41.7 0 0 0 6.68 23.31c-9.1 5-16.82 12.14-21.59 21.55-4.84 9.56-5.8 21.25-1.83 31.26a35.9 35.9 0 0 0 6.02 9.93c-7.42 6.76-14.1 15.37-17.18 25-2.94 9.12-1.25 18.31 3.6 26.48a50.6 50.6 0 0 0 4.77 6.47c-8.15 7.13-10.8 18.83-8.37 29.27 2.79 12.28 11.75 21.84 21.36 29.42a187.31 187.31 0 0 0 23.57 15.66c4.1 2.58 8.44 5 12.77 7.21a93.66 93.66 0 0 0 14.39 5.88 62.86 62.86 0 0 0 10.27 2.36 45.36 45.36 0 0 0 10.5.14 44.4 44.4 0 0 0 9.62-2.2c2.2-.74 4.33-1.7 6.38-2.87a49.8 49.8 0 0 0 4.7-2.87c9.25 2.2 18.65 3.46 28.2 3.31 20.33-.37 39.41-8.6 54.83-21.77 16.96-14.41 28.92-33.6 38.02-53.76 10.2-22.36 17.84-46.11 24.52-69.87Z"/><path fill="#C4674E" d="M183.88 273.98a454.72 454.72 0 0 0 43.55 24.82 311.04 311.04 0 0 0 22.52 10.31c7.58 3.1 15.38 5.75 23.47 7.37 7.5 1.47 15.67 2.2 23.25.73 4.7-.88 9.78-2.06 13.83-4.71a31.31 31.31 0 0 0 6.4-5.67 38.15 38.15 0 0 0 4.71-6.19 31.34 31.34 0 0 0 3.53-11.71c1.25-10.24-2.06-20.85-10.3-27.33a26.86 26.86 0 0 0-3.82-2.58c-1.03-.58-1.92.96-.96 1.63a26.7 26.7 0 0 1 10.96 11.85 29.74 29.74 0 0 1 2.5 13.85 32.45 32.45 0 0 1-2.72 11.79 21.9 21.9 0 0 1-2.8 4.49c-1.98 2.58-4.19 5-6.69 7.07-3.53 2.87-7.87 4.13-12.21 5.16-7.21 1.76-14.8 1.54-22.08.44-15.74-2.43-30.53-9.2-44.73-16.13a441.72 441.72 0 0 1-42.45-23.57c-1.7-1.03-3.31-2.14-5-3.17-1.04-.66-2 .96-.96 1.55Z"/><path fill="#C4674E" d="M197.56 216.38c16.4 7.73 32.96 15.25 49.52 22.46 15.9 7 31.93 14 48.7 18.64 8.1 2.28 16.78 4.42 25.24 2.94 6.26-1.1 12-4.27 16.41-8.76a34.17 34.17 0 0 0 9.05-16.8c.8-3.68.51-7.5-.15-11.19-1.98-10.68-8.46-20.33-17.88-25.7a40.87 40.87 0 0 0-4.41-2.14c-1.1-.44-1.55 1.32-.52 1.77a35.21 35.21 0 0 1 20.38 23.71 31.2 31.2 0 0 1 1.04 11.35c-.6 5.45-3.32 10.97-6.7 15.24a30.23 30.23 0 0 1-15.08 10.1c-7.88 2.13-16.12.51-23.84-1.55-16.26-4.2-31.79-10.76-47.16-17.46-16.04-7-31.94-14.14-47.83-21.5-1.99-.97-3.97-1.85-5.96-2.8-.96-.37-1.84 1.25-.8 1.69Z"/><path fill="#C4674E" d="M214.85 154c18.62 7.72 36.64 16.78 54.96 24.96a408.13 408.13 0 0 0 27.6 11.27c9.49 3.46 19.34 6.85 29.42 7.96 8.76 1.03 18.1-.15 25.54-5.3a24.77 24.77 0 0 0 8.09-9.14 26.08 26.08 0 0 0 2.72-12.23c0-8.69-3.9-16.72-9.64-23.13-6.25-7-14.5-11.85-23.03-15.61-7.28-3.24-14.78-5.9-22.22-8.77a366.73 366.73 0 0 1-21.48-8.98c-2.28-1.03-4.56-2.06-6.84-3.17-1.03-.52-1.99 1.1-.96 1.62a536.02 536.02 0 0 0 23.18 10.1c6.55 2.57 13.1 5.07 19.64 7.58 8.76 3.39 17.51 7.29 24.87 13.26 6.48 5.3 12 12.37 13.9 20.62 1.92 8.1.23 17.24-5.73 23.28-5.96 6.03-14.72 8.4-23.03 8.25-10-.15-19.87-3.4-29.21-6.56a353.11 353.11 0 0 1-27.44-10.75c-17.96-7.81-35.47-16.65-53.5-24.38-2.13-.96-4.34-1.85-6.47-2.73-.96-.44-1.47 1.4-.37 1.84ZM289.46 350c2.72-5.6 3.82-12.01 3.09-18.2a34.56 34.56 0 0 0-2.28-8.92c-1.03-2.5-2.36-5.81-5.15-6.7-1.1-.37-1.62 1.4-.52 1.77 1.25.37 1.99 1.62 2.58 2.73.66 1.25 1.25 2.5 1.76 3.82a31.36 31.36 0 0 1-1.1 24.53c-.51 1.1 1.1 2.06 1.62.96Z"/><path fill="#C4674E" d="M319.48 184.04a43.99 43.99 0 0 1 13.46-30.12c.88-.81-.44-2.14-1.32-1.33a46.12 46.12 0 0 0-14.06 31.38c.08 1.25 1.92 1.25 1.92.07Z"/><path fill="#C4674E" d="M330.07 156.42c4.12 1.18 8.24 2.58 12 4.72 3.01 1.69 5.8 4.2 6.4 7.8.58 3.54-1.03 7.15-3.6 9.5-2.73 2.58-6.56 3.76-10.24 4.06-5.07.37-10.08-1.03-14.93-2.43-1.1-.3-1.62 1.47-.52 1.76 8.54 2.5 18.76 4.64 26.34-1.54 2.95-2.43 4.93-6.19 4.86-10.1 0-4.04-2.36-7.29-5.52-9.5a32.98 32.98 0 0 0-6.18-3.24 76.45 76.45 0 0 0-8.17-2.87c-1.1-.3-1.54 1.47-.44 1.84ZM297.04 242.53a47.01 47.01 0 0 1 14.42-32.27c.88-.8-.44-2.13-1.33-1.32a49.03 49.03 0 0 0-15 33.59c0 1.18 1.83 1.18 1.9 0Z"/><path fill="#C4674E" d="M308.44 212.92c4.34 1.25 8.76 2.8 12.73 5 3.31 1.85 6.4 4.57 6.99 8.55.51 3.75-1.18 7.59-3.9 10.09-3.02 2.8-7.14 4.05-11.11 4.35-5.44.36-10.74-1.1-15.9-2.58-1.1-.3-1.61 1.47-.5 1.76 8.97 2.66 19.86 4.94 27.88-1.47A14.13 14.13 0 0 0 330 227.8c0-4.34-2.58-7.8-5.96-10.23a33.3 33.3 0 0 0-6.62-3.47 73.4 73.4 0 0 0-8.54-3.02c-1.1-.29-1.62 1.48-.44 1.85ZM277.17 301.82a47.02 47.02 0 0 1 14.42-32.26c.89-.81-.44-2.14-1.32-1.33a49.04 49.04 0 0 0-15.01 33.59c0 1.18 1.84 1.18 1.91 0Z"/><path fill="#C4674E" d="M288.58 272.14c4.34 1.25 8.75 2.8 12.72 5 3.31 1.85 6.4 4.57 7 8.55.5 3.75-1.18 7.58-3.9 10.09-3.02 2.8-7.14 4.05-11.12 4.35-5.44.36-10.74-1.1-15.89-2.58-1.1-.3-1.62 1.47-.51 1.76 8.97 2.66 19.86 4.94 27.88-1.47a14.13 14.13 0 0 0 5.37-10.82c0-4.35-2.57-7.81-5.96-10.24a33.41 33.41 0 0 0-6.62-3.47 73.65 73.65 0 0 0-8.53-3.01c-1.1-.3-1.62 1.54-.44 1.84ZM253.55 346.53a35.48 35.48 0 0 1 10.9-24.3c.88-.82-.45-2.14-1.33-1.33a37.06 37.06 0 0 0-11.4 25.56c0 1.25 1.83 1.25 1.83.07Z"/><path fill="#C4674E" d="M261.94 324.28c3.24.96 6.55 2.07 9.5 3.76 2.42 1.4 4.77 3.39 5.22 6.33.44 2.8-.89 5.75-2.95 7.6-2.28 2.05-5.37 2.94-8.31 3.16-4.05.22-7.95-.81-11.85-1.99-1.1-.3-1.62 1.47-.51 1.77 6.91 1.99 15.23 3.75 21.34-1.18a10.8 10.8 0 0 0 4.12-8.32c0-3.32-1.92-6.04-4.57-7.96-3.38-2.43-7.65-3.83-11.62-4.93-1.03-.37-1.47 1.4-.37 1.76Z"/><path fill="#FFD62A" d="m485.83 267.86-6.1-20.99-5.67 21-20.3 6.7 20.3 6.85 5.67 22.76 6.4-22.62 19.57-7-19.87-6.7ZM147.9 106.34l-5.96-20.55-5.6 20.47-19.86 6.63 19.87 6.63 5.59 22.32 6.25-22.17 19.2-6.78-19.5-6.55ZM525.42 213.87l-3.68-12.66-3.46 12.66-12.21 3.98 12.2 4.13 3.47 13.77 3.82-13.63 11.85-4.27-12-3.98ZM104.78 174.47l-3.6-12.38-3.39 12.38-11.99 3.97 12 3.98 3.38 13.48 3.75-13.4 11.55-4.06-11.7-3.97ZM337.14 15.44l-2.95-10.23-2.8 10.23-9.85 3.24L331.4 22l2.8 11.12 3.08-11.05 9.57-3.39-9.71-3.24ZM144.88 331.5l-2.94-10.24-2.8 10.24-9.86 3.32 9.86 3.31 2.8 11.05 3.09-10.98 9.56-3.38-9.7-3.32Z"/></svg>